<svg width="215" height="44" viewBox="0 0 215 44" fill="none" xmlns="http://www.w3.org/2000/svg">
<path d="M13.464 0.360001V0.936001H10.08V35.784H14.4V36.36H0V35.784H4.32V0.936001H0.936V0.360001H13.464ZM37.152 0.360001V0.936001H33.768V35.784H38.088V36.36H23.688V35.784H28.008V0.936001H24.624V0.360001H37.152ZM68.112 23.688C67.536 24.84 66.48 25.932 64.944 26.964C63.408 27.996 61.164 28.512 58.212 28.512C55.26 28.512 52.38 27.432 49.572 25.272C46.764 23.112 45.36 19.896 45.36 15.624C45.36 11.352 46.704 7.68 49.392 4.608C52.08 1.536 55.944 0 60.984 0C70.2 0 74.808 5.64 74.808 16.92C74.808 22.2 73.44 27.024 70.704 31.392C67.584 36.432 62.928 39.912 56.736 41.832C53.328 42.936 49.488 43.488 45.216 43.488L45.288 42.984C53.784 42.984 59.976 40.248 63.864 34.776C65.976 31.8 67.392 28.104 68.112 23.688ZM68.472 21.888C68.904 18.912 69.12 16.176 69.12 13.68C69.12 9.456 68.316 6.216 66.708 3.96C65.1 1.704 63 0.576 60.408 0.576C57.816 0.576 55.62 2.016 53.82 4.896C52.02 7.776 51.12 11.364 51.12 15.66C51.12 19.956 51.948 23.076 53.604 25.02C55.26 26.964 57.264 27.936 59.616 27.936C61.2 27.936 62.724 27.48 64.188 26.568C65.652 25.656 66.732 24.732 67.428 23.796C68.124 22.86 68.472 22.224 68.472 21.888Z" fill="#2B2118"/>
<path d="M92.1469 29.06C97.3107 29.06 101.497 24.8739 101.497 19.71C101.497 14.5461 97.3107 10.36 92.1469 10.36C86.983 10.36 82.7969 14.5461 82.7969 19.71C82.7969 24.8739 86.983 29.06 92.1469 29.06Z" stroke="#B88638" stroke-width="1.3"/>
<path d="M92.15 24.11C94.5801 24.11 96.55 22.14 96.55 19.71C96.55 17.2799 94.5801 15.31 92.15 15.31C89.7199 15.31 87.75 17.2799 87.75 19.71C87.75 22.14 89.7199 24.11 92.15 24.11Z" fill="#B88638"/>
<path d="M157.296 0.792002L157.728 0.360003C157.92 0.456003 158.172 0.744003 158.484 1.224C158.796 1.704 158.988 2.136 159.06 2.52C159.132 2.904 159.168 3.264 159.168 3.6C159.168 4.896 158.88 6.216 158.304 7.56L145.2 36.36H144.48L134.112 8.496L121.44 36.36H120.72L107.328 0.360003H112.368L123.384 30.168L133.752 7.632L131.088 0.360003H136.128L147.144 30.168L157.584 7.56C158.16 6.552 158.448 5.352 158.448 3.96C158.448 2.568 158.064 1.512 157.296 0.792002ZM177.384 23.904C177.384 16.752 173.88 13.176 166.872 13.176L168.168 0.360003H180.84V5.976H168.312L167.592 12.6C177.96 12.84 183.144 16.512 183.144 23.616C183.144 26.064 182.496 28.404 181.2 30.636C179.904 32.868 178.2 34.824 176.088 36.504C172.104 39.624 167.808 41.976 163.2 43.56V42.912L163.992 42.48C168.552 39.984 172.08 36.888 174.576 33.192C176.448 30.36 177.384 27.264 177.384 23.904ZM190.344 5.904V0.288002H214.032C204.336 23.136 197.712 37.56 194.16 43.56L193.584 43.344C197.376 36.816 203.16 24.36 210.936 5.976L190.344 5.904Z" fill="#2B2118"/>
</svg>
