<svg width="60" height="21" viewBox="0 0 60 21" fill="none" xmlns="http://www.w3.org/2000/svg">
<path d="M14.9221 9.14101L15.1243 11.3251L14.5985 11.3656L14.8007 9.14101H14.9221Z" fill="#1539A1"/>
<path fill-rule="evenodd" clip-rule="evenodd" d="M9.39701 0C14.9787 1.06861e-05 19.5088 4.53007 19.5088 10.1117C19.5088 15.6934 14.9787 20.2235 9.39701 20.2235C6.10964 20.2235 3.17713 18.6508 1.3564 16.2222L2.46387 15.4584C2.46236 14.4454 2.4563 12.3818 2.43204 12.0815C2.43204 11.6973 2.24193 9.4848 2.28237 9.11269L2.38752 9.11676L3.71421 15.7905L5.57071 15.4629L6.65065 9.27448H6.77199C6.82861 9.65468 6.6749 11.4506 6.6749 11.8348C6.64254 12.2353 6.64255 15.2728 6.64255 15.2728L8.52333 14.9452V5.64235L5.5869 5.13274L4.76177 10.8358C4.73333 10.8347 3.92969 4.8579 3.92857 4.84961L1.1501 4.36673L1.14844 4.26676C2.98087 1.68827 5.98588 0 9.39701 0ZM9.01679 8.08939L10.4324 8.25118V14.6014L12.1717 14.3182V8.37252L13.3042 8.49386V6.47151L9.01679 5.70302V8.08939ZM12.9402 14.1564L14.2749 13.9542L14.3962 12.9835L15.3265 12.8621L15.4479 13.752L16.4995 13.5497L15.4883 6.83554L14.2345 6.6333L12.9402 14.1564Z" fill="#1539A1"/>
<path d="M25.6689 16.1133V4.82157H28.0563V14.145H32.8971V16.1133H25.6689ZM36.8655 4.82157V16.1133H34.4782V4.82157H36.8655ZM38.8297 16.1133V4.82157H43.2846C44.1374 4.82157 44.8652 4.97411 45.468 5.27919C46.0745 5.5806 46.5358 6.00882 46.8519 6.56384C47.1717 7.1152 47.3316 7.76396 47.3316 8.51012C47.3316 9.25996 47.1698 9.90504 46.8464 10.4454C46.5229 10.982 46.0543 11.3937 45.4404 11.6804C44.8303 11.9671 44.0915 12.1105 43.224 12.1105H40.2412V10.1917H42.838C43.2938 10.1917 43.6724 10.1293 43.9738 10.0043C44.2752 9.87931 44.4995 9.69185 44.6465 9.44191C44.7972 9.19196 44.8725 8.88137 44.8725 8.51012C44.8725 8.1352 44.7972 7.81909 44.6465 7.56179C44.4995 7.3045 44.2734 7.10968 43.9683 6.97736C43.6669 6.84136 43.2865 6.77336 42.827 6.77336H41.2171V16.1133H38.8297ZM44.9277 10.9747L47.7341 16.1133H45.0986L42.3529 10.9747H44.9277ZM49.0187 16.1133V4.82157H53.4737C54.3264 4.82157 55.0542 4.97411 55.657 5.27919C56.2635 5.5806 56.7248 6.00882 57.0409 6.56384C57.3607 7.1152 57.5206 7.76396 57.5206 8.51012C57.5206 9.25996 57.3589 9.90504 57.0354 10.4454C56.7119 10.982 56.2433 11.3937 55.6294 11.6804C55.0193 11.9671 54.2805 12.1105 53.413 12.1105H50.4302V10.1917H53.0271C53.4828 10.1917 53.8614 10.1293 54.1628 10.0043C54.4642 9.87931 54.6885 9.69185 54.8355 9.44191C54.9862 9.19196 55.0615 8.88137 55.0615 8.51012C55.0615 8.1352 54.9862 7.81909 54.8355 7.56179C54.6885 7.3045 54.4624 7.10968 54.1573 6.97736C53.8559 6.84136 53.4755 6.77336 53.016 6.77336H51.4061V16.1133H49.0187ZM55.1167 10.9747L57.9231 16.1133H55.2876L52.5419 10.9747H55.1167Z" fill="#0039A6"/>
</svg>
