<svg width="54" height="28" viewBox="0 0 54 28" fill="none" xmlns="http://www.w3.org/2000/svg">
<rect width="53.3828" height="27.7923" rx="4" fill="#5C8CEC"/>
<path d="M9.11932 19.793V9.61115H13.1364C13.9086 9.61115 14.5665 9.75864 15.1101 10.0536C15.6536 10.3453 16.0679 10.7513 16.353 11.2717C16.6413 11.7887 16.7855 12.3853 16.7855 13.0614C16.7855 13.7376 16.6397 14.3342 16.348 14.8512C16.0563 15.3683 15.6338 15.771 15.0803 16.0593C14.5301 16.3477 13.8639 16.4918 13.0817 16.4918H10.5213V14.7667H12.7337C13.148 14.7667 13.4893 14.6954 13.7578 14.5529C14.0296 14.4071 14.2318 14.2066 14.3643 13.9513C14.5002 13.6928 14.5682 13.3962 14.5682 13.0614C14.5682 12.7234 14.5002 12.4284 14.3643 12.1765C14.2318 11.9213 14.0296 11.7241 13.7578 11.5849C13.486 11.4424 13.1413 11.3711 12.7237 11.3711H11.272V19.793H9.11932ZM18.763 19.793H16.4561L19.9711 9.61115H22.7452L26.2551 19.793H23.9483L21.3979 11.9379H21.3184L18.763 19.793ZM18.6188 15.7908H24.0676V17.4712H18.6188V15.7908ZM25.8487 11.386V9.61115H34.2109V11.386H31.0938V19.793H28.9659V11.386H25.8487ZM35.5881 19.793V9.61115H37.7408V13.8121H42.1108V9.61115H44.2585V19.793H42.1108V15.587H37.7408V19.793H35.5881Z" fill="white"/>
</svg>
