<svg width="18" height="18" viewBox="0 0 18 18" fill="none" xmlns="http://www.w3.org/2000/svg">
<path d="M4.85884 1.5L2.25 3.67404V7.875H15.75V3.67404L13.1411 1.5H4.85884Z" fill="white"/>
<path fill-rule="evenodd" clip-rule="evenodd" d="M2.25 13.5V9H15.75V13.5H13.004L14.504 16.5H13.2462L11.7462 13.5H6.254L4.754 16.5H3.49622L4.99622 13.5H2.25ZM5.25 12C5.66421 12 6 11.6642 6 11.25C6 10.8358 5.66421 10.5 5.25 10.5C4.83579 10.5 4.5 10.8358 4.5 11.25C4.5 11.6642 4.83579 12 5.25 12ZM13.5 11.25C13.5 11.6642 13.1642 12 12.75 12C12.3358 12 12 11.6642 12 11.25C12 10.8358 12.3358 10.5 12.75 10.5C13.1642 10.5 13.5 10.8358 13.5 11.25Z" fill="white"/>
</svg>
