<svg width="693" height="186" viewBox="0 0 693 186" fill="none" xmlns="http://www.w3.org/2000/svg">
<g transform="translate(12 162.9)">
<path transform="translate(-8.1 0)" d="M99.60-127.30L51.90-77Q52.60-77.10 53.30-77.10Q55.20-77.20 57.30-77.20Q72-77.20 82.50-72.80Q93-68.40 98.65-60.05Q104.30-51.70 104.30-39.90Q104.30-27 98.05-17.35Q91.80-7.70 80.45-2.35Q69.10 3 53.60 3Q38.80 3 28.65-1.10Q18.50-5.20 13.30-12.25Q8.10-19.30 8.10-27.90Q8.10-34.90 12.05-39.05Q16-43.20 22.10-43.20Q28.10-43.20 31.20-39.75Q34.30-36.30 34.30-30.40L34.30-21.30Q34.30-13.70 39.40-9Q44.50-4.30 54-4.30Q61.20-4.30 66.65-7.75Q72.10-11.20 75.20-18.15Q78.30-25.10 78.30-35.60Q78.30-52.30 71.25-60.15Q64.20-68 49.70-68L43.10-68Q40.30-68 38.95-69.15Q37.60-70.30 37.60-72.40Q37.60-74 38.40-75.45Q39.20-76.90 41.60-79.20L80-119L32.50-119Q29-119 27.15-117.75Q25.30-116.50 24.60-113.70L21.90-102.80Q21.50-100.90 20.20-99.75Q18.90-98.60 16.60-98.60Q14.30-98.70 12.90-100Q11.50-101.30 11.80-104.10L15-133.40Q15.20-136.50 17.45-138.25Q19.70-140 23.60-140L98.60-140Q102.20-140 103.80-139.05Q105.40-138.10 105.40-136.10Q105.40-134.60 104.30-132.75Q103.20-130.90 99.60-127.30 M163.40 2.90Q150.30 2.90 141.05-1.20Q131.80-5.30 126.90-11.95Q122-18.60 122-26.40Q122-33.50 125.70-37.35Q129.40-41.20 135.90-41.20Q142.30-41.20 145.80-37.70Q149.30-34.20 149.30-27.70L149.30-20.30Q149.30-13.10 153.45-9Q157.60-4.90 166.30-4.90Q174.70-4.90 181.75-11.70Q188.80-18.50 193.10-34Q197.20-48.90 197.40-73.40Q191.70-66.30 182.70-61.90Q173-57.10 161-57.10Q148-57.10 138.40-61.85Q128.80-66.60 123.55-75.65Q118.30-84.70 118.30-97.30Q118.30-110.90 124.60-121.20Q130.90-131.50 142.30-137.20Q153.70-142.90 169-142.90Q186.50-142.90 198.85-134.85Q211.20-126.80 217.80-111.65Q224.40-96.50 224.40-75.20Q224.40-49.50 216.85-32.10Q209.30-14.70 195.60-5.90Q181.90 2.90 163.40 2.90M197.20-85.10Q196.60-101 193.70-111.20Q189.90-124.20 183.50-129.70Q177.10-135.20 169-135.20Q157.80-135.20 151.10-126.55Q144.40-117.90 144.40-100.60Q144.40-84.20 151.65-75.70Q158.90-67.20 170.70-67.20Q178.10-67.20 184.35-70.65Q190.60-74.10 194.60-80.10Q196.20-82.50 197.20-85.10" fill="#f5f1e8"/>
<path transform="translate(226.3 -56)" d="M0-26.68L76-26.68L76-20.52L0-20.52 M101.23 0L93 0L77.93-55.29L85.13-55.29L93.89-21.37Q94.59-18.67 95.22-15.86Q95.85-13.06 96.45-10.21Q96.82-8.42 97.15-6.61Q97.49-8.42 97.86-10.21Q98.45-13.06 99.12-15.86Q99.79-18.67 100.49-21.37L109.44-55.29L117.45-55.29L126.32-21.37Q127.06-18.67 127.71-15.86Q128.36-13.06 128.99-10.21Q129.36-8.54 129.70-6.83Q130.03-8.54 130.37-10.21Q130.96-13.06 131.63-15.86Q132.29-18.67 132.96-21.37L141.68-55.29L148.96-55.29L133.82 0L125.62 0L116.12-35.03Q115.19-38.45 114.33-42.49Q113.85-44.72 113.41-47.35Q112.96-44.98 112.55-42.90Q111.77-38.96 110.70-35.03 M150.89-26.68L226.89-26.68L226.89-20.52L150.89-20.52" fill="#c79962"/>
<path transform="translate(455.09 0)" d="M99.60-127.30L51.90-77Q52.60-77.10 53.30-77.10Q55.20-77.20 57.30-77.20Q72-77.20 82.50-72.80Q93-68.40 98.65-60.05Q104.30-51.70 104.30-39.90Q104.30-27 98.05-17.35Q91.80-7.70 80.45-2.35Q69.10 3 53.60 3Q38.80 3 28.65-1.10Q18.50-5.20 13.30-12.25Q8.10-19.30 8.10-27.90Q8.10-34.90 12.05-39.05Q16-43.20 22.10-43.20Q28.10-43.20 31.20-39.75Q34.30-36.30 34.30-30.40L34.30-21.30Q34.30-13.70 39.40-9Q44.50-4.30 54-4.30Q61.20-4.30 66.65-7.75Q72.10-11.20 75.20-18.15Q78.30-25.10 78.30-35.60Q78.30-52.30 71.25-60.15Q64.20-68 49.70-68L43.10-68Q40.30-68 38.95-69.15Q37.60-70.30 37.60-72.40Q37.60-74 38.40-75.45Q39.20-76.90 41.60-79.20L80-119L32.50-119Q29-119 27.15-117.75Q25.30-116.50 24.60-113.70L21.90-102.80Q21.50-100.90 20.20-99.75Q18.90-98.60 16.60-98.60Q14.30-98.70 12.90-100Q11.50-101.30 11.80-104.10L15-133.40Q15.20-136.50 17.45-138.25Q19.70-140 23.60-140L98.60-140Q102.20-140 103.80-139.05Q105.40-138.10 105.40-136.10Q105.40-134.60 104.30-132.75Q103.20-130.90 99.60-127.30 M164.40-77.50L191.80-116.90L137-116.90Q133.50-116.90 131.90-115.70Q130.30-114.50 129.50-111.50L126.50-99.50Q126-97.60 124.65-96.45Q123.30-95.30 121.10-95.30Q118.60-95.30 117.35-96.70Q116.10-98.10 116.30-100.70L119.10-133.50Q119.30-136.50 121.25-138.25Q123.20-140 126.90-140L207.20-140Q210.60-140 212.45-138.50Q214.30-137 214.30-134.40Q214.30-132.80 213.30-130.85Q212.30-128.90 209.50-125.10L183.60-85.80Q177.40-77.30 173.30-70.80Q169.20-64.30 166.85-59.25Q164.50-54.20 163.55-50.10Q162.60-46 162.60-42.20Q162.60-37.60 164.35-34.15Q166.10-30.70 168.40-27.65Q170.70-24.60 172.40-21.10Q174.10-17.60 174.10-12.70Q174.10-6.10 169.80-1.55Q165.50 3 157.10 3Q148.40 3 143.10-2.85Q137.80-8.70 137.80-20.30Q137.80-28.50 140.35-36.80Q142.90-45.10 148.70-54.90Q154.50-64.70 164.40-77.50" fill="#f5f1e8"/>
</g>
</svg>
