<svg width="2410" height="459" viewBox="0 0 2410 459" fill="none" xmlns="http://www.w3.org/2000/svg">
<path d="M768.786 402.642H691.408V145.928H589.906V75.8327H870.744V145.928H768.786V402.642Z" fill="#fdfcf9"/>
<path d="M968.611 402.642H891.233V75.8331H1022.32C1064.8 75.8331 1097.73 85.2399 1121.09 104.053C1144.76 122.564 1156.59 148.963 1156.59 183.252C1156.59 204.797 1150.37 223.914 1137.93 240.603C1125.49 257.293 1107.89 269.886 1085.13 278.382L1167.06 402.642H1074.66L1004.57 290.671H968.611V402.642ZM968.611 140.012V226.493H1018.68C1038.71 226.493 1053.73 223.003 1063.74 216.024C1073.75 208.742 1078.76 197.818 1078.76 183.252C1078.76 168.687 1073.75 157.915 1063.74 150.936C1053.73 143.653 1038.71 140.012 1018.68 140.012H968.611Z" fill="#fdfcf9"/>
<path d="M1337.92 409.47C1314.25 409.47 1292.25 405.374 1271.92 397.181C1251.59 388.684 1233.69 376.698 1218.21 361.222C1203.04 345.747 1191.21 327.692 1182.71 307.058C1174.21 286.12 1169.96 263.362 1169.96 238.783C1169.96 214.204 1174.21 191.597 1182.71 170.963C1191.21 150.329 1203.04 132.426 1218.21 117.253C1233.69 101.778 1251.59 89.9435 1271.92 81.7505C1292.25 73.2541 1314.25 69.0059 1337.92 69.0059C1361.59 69.0059 1383.59 73.2541 1403.92 81.7505C1424.25 89.9435 1442 101.778 1457.17 117.253C1472.65 132.426 1484.64 150.329 1493.13 170.963C1501.63 191.597 1505.88 214.204 1505.88 238.783C1505.88 263.362 1501.63 286.12 1493.13 307.058C1484.64 327.692 1472.65 345.747 1457.17 361.222C1442 376.698 1424.25 388.684 1403.92 397.181C1383.59 405.374 1361.59 409.47 1337.92 409.47ZM1337.92 340.285C1351.58 340.285 1363.87 337.706 1374.79 332.547C1386.02 327.085 1395.42 319.802 1403.01 310.699C1410.6 301.292 1416.36 290.52 1420.31 278.382C1424.25 265.941 1426.22 252.741 1426.22 238.783C1426.22 224.824 1424.25 211.776 1420.31 199.639C1416.36 187.501 1410.6 176.88 1403.01 167.777C1395.42 158.674 1386.02 151.543 1374.79 146.384C1363.87 140.922 1351.58 138.191 1337.92 138.191C1323.96 138.191 1311.52 140.922 1300.6 146.384C1289.67 151.543 1280.42 158.674 1272.83 167.777C1265.25 176.88 1259.48 187.501 1255.54 199.639C1251.59 211.776 1249.62 224.824 1249.62 238.783C1249.62 252.741 1251.59 265.941 1255.54 278.382C1259.48 290.52 1265.25 301.292 1272.83 310.699C1280.42 319.802 1289.67 327.085 1300.6 332.547C1311.52 337.706 1323.96 340.285 1337.92 340.285Z" fill="#fdfcf9"/>
<path d="M1647.63 299.775H1601.21V402.643H1523.83V75.8333H1647.63C1675.25 75.8333 1698.91 80.0816 1718.64 88.578C1738.67 96.771 1753.99 109.06 1764.61 125.446C1775.53 141.529 1781 161.708 1781 185.984C1781 209.956 1775.53 230.438 1764.61 247.431C1753.99 264.424 1738.67 277.472 1718.64 286.575C1698.91 295.375 1675.25 299.775 1647.63 299.775ZM1647.18 140.922H1601.21V234.231H1647.18C1665.69 234.231 1679.8 229.983 1689.51 221.486C1699.22 212.687 1704.07 201.156 1704.07 186.894C1704.07 172.329 1699.22 161.101 1689.51 153.212C1679.8 145.019 1665.69 140.922 1647.18 140.922Z" fill="#fdfcf9"/>
<path d="M1875.86 402.643H1798.49V75.8333H1875.86V201.004H2007.41V75.8333H2084.79V402.643H2007.41V268.369H1875.86V402.643Z" fill="#fdfcf9"/>
<path d="M2293.81 269.748V402.643H2216.43V269.748L2101.27 75.8333H2185.02L2257.85 198.742L2331.58 75.8333H2409.42L2293.81 269.748Z" fill="#fdfcf9"/>
<rect width="458.478" height="458.475" fill="#FAB300"/>
<g opacity="0.3">
<path d="M196.482 196.477V393.047H65.4336V262H130.958V196.477H196.482Z" fill="white"/>
<path d="M327.531 262H393.056V393.047H262.007V196.477H327.531V262Z" fill="white"/>
</g>
<rect x="196.48" y="65.4277" width="65.5244" height="327.617" fill="white"/>
</svg>
