<svg width="400" height="400" viewBox="0 0 400 400" fill="none" xmlns="http://www.w3.org/2000/svg">
<rect width="400" height="400" fill="#EEE7D7"/>
<path d="M62.4809 120.901V123.017H50.0445V251.086H65.9207V253.203H13V251.086H28.8762V123.017H16.4398V120.901H62.4809ZM149.536 120.901V123.017H137.099V251.086H152.975V253.203H100.055V251.086H115.931V123.017H103.494V120.901H149.536ZM263.315 206.632C261.198 210.866 257.317 214.879 251.673 218.672C246.028 222.464 237.781 224.361 226.932 224.361C216.083 224.361 205.499 220.392 195.18 212.454C184.86 204.515 179.7 192.696 179.7 176.997C179.7 161.297 184.64 147.802 194.518 136.512C204.397 125.223 218.597 119.578 237.119 119.578C270.989 119.578 287.923 140.305 287.923 181.76C287.923 201.164 282.896 218.892 272.841 234.945C261.375 253.467 244.264 266.256 221.508 273.312C208.983 277.37 194.871 279.398 179.171 279.398L179.436 277.546C210.659 277.546 233.415 267.491 247.703 247.381C255.465 236.444 260.669 222.861 263.315 206.632ZM264.638 200.017C266.226 189.08 267.02 179.025 267.02 169.852C267.02 154.329 264.065 142.422 258.155 134.131C252.246 125.84 244.528 121.694 235.003 121.694C225.477 121.694 217.406 126.987 210.791 137.571C204.176 148.155 200.869 161.341 200.869 177.129C200.869 192.917 203.912 204.383 209.997 211.527C216.083 218.672 223.448 222.244 232.092 222.244C237.913 222.244 243.514 220.568 248.894 217.216C254.274 213.865 258.244 210.469 260.801 207.029C263.359 203.589 264.638 201.252 264.638 200.017Z" fill="#2B2118"/>
<path d="M351.643 226.375C370.62 226.375 386.005 210.99 386.005 192.013C386.005 173.035 370.62 157.651 351.643 157.651C332.666 157.651 317.281 173.035 317.281 192.013C317.281 210.99 332.666 226.375 351.643 226.375Z" stroke="#B88638" stroke-width="4.77757"/>
<path d="M351.655 208.183C360.585 208.183 367.825 200.943 367.825 192.013C367.825 183.082 360.585 175.843 351.655 175.843C342.724 175.843 335.484 183.082 335.484 192.013C335.484 200.943 342.724 208.183 351.655 208.183Z" fill="#B88638"/>
</svg>
