<svg width="400" height="400" viewBox="0 0 400 400" fill="none" xmlns="http://www.w3.org/2000/svg">
<rect width="400" height="400" fill="#EEE7D7"/>
<path d="M94.8107 139.443V141.06H85.3086V238.911H97.4389V240.529H57.0046V238.911H69.1349V141.06H59.6329V139.443H94.8107ZM161.325 139.443V141.06H151.823V238.911H163.953V240.529H123.519V238.911H135.649V141.06H126.147V139.443H161.325ZM248.259 204.947C246.641 208.181 243.676 211.248 239.363 214.145C235.05 217.043 228.749 218.492 220.46 218.492C212.171 218.492 204.084 215.459 196.2 209.394C188.315 203.329 184.373 194.299 184.373 182.303C184.373 170.308 188.146 159.997 195.694 151.371C203.242 142.745 214.092 138.432 228.244 138.432C254.122 138.432 267.061 154.269 267.061 185.942C267.061 200.768 263.219 214.314 255.537 226.579C246.776 240.731 233.702 250.503 216.316 255.894C206.746 258.994 195.964 260.544 183.968 260.544L184.17 259.128C208.027 259.128 225.413 251.446 236.331 236.081C242.261 227.725 246.237 217.346 248.259 204.947ZM249.269 199.892C250.482 191.536 251.089 183.853 251.089 176.845C251.089 164.984 248.831 155.886 244.316 149.552C239.801 143.217 233.904 140.05 226.626 140.05C219.348 140.05 213.182 144.093 208.128 152.18C203.073 160.267 200.546 170.342 200.546 182.404C200.546 194.467 202.871 203.228 207.521 208.687C212.171 214.145 217.798 216.875 224.402 216.875C228.85 216.875 233.129 215.594 237.24 213.033C241.351 210.473 244.384 207.878 246.338 205.25C248.292 202.622 249.269 200.836 249.269 199.892Z" fill="#2B2118"/>
<path d="M315.746 220.031C330.246 220.031 342 208.276 342 193.777C342 179.277 330.246 167.522 315.746 167.522C301.246 167.522 289.492 179.277 289.492 193.777C289.492 208.276 301.246 220.031 315.746 220.031Z" stroke="#B88638" stroke-width="3.65031"/>
<path d="M315.755 206.132C322.578 206.132 328.11 200.6 328.11 193.777C328.11 186.953 322.578 181.422 315.755 181.422C308.931 181.422 303.4 186.953 303.4 193.777C303.4 200.6 308.931 206.132 315.755 206.132Z" fill="#B88638"/>
</svg>
